<mxfile host="app.diagrams.net" modified="2023-09-28T18:03:11.206Z" agent="Mozilla/5.0 (X11; Linux x86_64; rv:109.0) Gecko/20100101 Firefox/114.0" etag="LY1EW90m0kKTZuEPfw8y" version="21.8.2" type="github">
  <diagram name="Página-1" id="78ed3y_AXZy9ldi5siUV">
    <mxGraphModel dx="1434" dy="795" grid="1" gridSize="10" guides="1" tooltips="1" connect="1" arrows="1" fold="1" page="1" pageScale="1" pageWidth="827" pageHeight="1169" math="0" shadow="0">
      <root>
        <mxCell id="0" />
        <mxCell id="1" parent="0" />
        <mxCell id="IQ7n-2P_HjUCSqsVsKf0-1" value="CAMIONERO" style="rounded=0;whiteSpace=wrap;html=1;fontSize=14;" vertex="1" parent="1">
          <mxGeometry x="172" y="220" width="120" height="60" as="geometry" />
        </mxCell>
        <mxCell id="IQ7n-2P_HjUCSqsVsKf0-2" value="PAQUETE" style="rounded=0;whiteSpace=wrap;html=1;fontSize=14;" vertex="1" parent="1">
          <mxGeometry x="536" y="220" width="120" height="60" as="geometry" />
        </mxCell>
        <mxCell id="IQ7n-2P_HjUCSqsVsKf0-3" value="REPARTE" style="rhombus;whiteSpace=wrap;html=1;fillColor=#fff2cc;strokeColor=#d6b656;" vertex="1" parent="1">
          <mxGeometry x="372" y="210" width="80" height="80" as="geometry" />
        </mxCell>
        <mxCell id="IQ7n-2P_HjUCSqsVsKf0-4" value="" style="endArrow=none;html=1;rounded=0;entryX=1;entryY=0.5;entryDx=0;entryDy=0;exitX=0;exitY=0.5;exitDx=0;exitDy=0;" edge="1" parent="1" source="IQ7n-2P_HjUCSqsVsKf0-2" target="IQ7n-2P_HjUCSqsVsKf0-3">
          <mxGeometry width="50" height="50" relative="1" as="geometry">
            <mxPoint x="512" y="440" as="sourcePoint" />
            <mxPoint x="562" y="390" as="targetPoint" />
          </mxGeometry>
        </mxCell>
        <mxCell id="IQ7n-2P_HjUCSqsVsKf0-5" value="" style="endArrow=none;html=1;rounded=0;entryX=1;entryY=0.5;entryDx=0;entryDy=0;exitX=0;exitY=0.5;exitDx=0;exitDy=0;" edge="1" parent="1">
          <mxGeometry width="50" height="50" relative="1" as="geometry">
            <mxPoint x="376" y="249.5" as="sourcePoint" />
            <mxPoint x="292" y="249.5" as="targetPoint" />
          </mxGeometry>
        </mxCell>
        <mxCell id="IQ7n-2P_HjUCSqsVsKf0-6" value="CAMIÓN" style="rounded=0;whiteSpace=wrap;html=1;fontSize=14;" vertex="1" parent="1">
          <mxGeometry x="172" y="480" width="120" height="60" as="geometry" />
        </mxCell>
        <mxCell id="IQ7n-2P_HjUCSqsVsKf0-7" value="CONDUCE" style="rhombus;whiteSpace=wrap;html=1;fillColor=#fff2cc;strokeColor=#d6b656;" vertex="1" parent="1">
          <mxGeometry x="192" y="340" width="80" height="80" as="geometry" />
        </mxCell>
        <mxCell id="IQ7n-2P_HjUCSqsVsKf0-8" value="" style="endArrow=none;html=1;rounded=0;entryX=0.5;entryY=1;entryDx=0;entryDy=0;exitX=0.5;exitY=0;exitDx=0;exitDy=0;" edge="1" parent="1" source="IQ7n-2P_HjUCSqsVsKf0-6" target="IQ7n-2P_HjUCSqsVsKf0-7">
          <mxGeometry width="50" height="50" relative="1" as="geometry">
            <mxPoint x="390" y="440" as="sourcePoint" />
            <mxPoint x="440" y="390" as="targetPoint" />
          </mxGeometry>
        </mxCell>
        <mxCell id="IQ7n-2P_HjUCSqsVsKf0-9" value="" style="endArrow=none;html=1;rounded=0;entryX=0.5;entryY=1;entryDx=0;entryDy=0;exitX=0.5;exitY=0;exitDx=0;exitDy=0;" edge="1" parent="1">
          <mxGeometry width="50" height="50" relative="1" as="geometry">
            <mxPoint x="231.5" y="340" as="sourcePoint" />
            <mxPoint x="231.5" y="280" as="targetPoint" />
          </mxGeometry>
        </mxCell>
        <mxCell id="IQ7n-2P_HjUCSqsVsKf0-10" value="DNI" style="ellipse;whiteSpace=wrap;html=1;aspect=fixed;fillColor=#f8cecc;strokeColor=#b85450;fontStyle=4" vertex="1" parent="1">
          <mxGeometry x="160" y="130" width="40" height="40" as="geometry" />
        </mxCell>
        <mxCell id="IQ7n-2P_HjUCSqsVsKf0-12" value="Nombre" style="ellipse;whiteSpace=wrap;html=1;" vertex="1" parent="1">
          <mxGeometry x="202" y="130" width="60" height="40" as="geometry" />
        </mxCell>
        <mxCell id="IQ7n-2P_HjUCSqsVsKf0-13" value="Teléfono" style="ellipse;whiteSpace=wrap;html=1;" vertex="1" parent="1">
          <mxGeometry x="262" y="130" width="60" height="40" as="geometry" />
        </mxCell>
        <mxCell id="IQ7n-2P_HjUCSqsVsKf0-33" style="edgeStyle=orthogonalEdgeStyle;rounded=0;orthogonalLoop=1;jettySize=auto;html=1;exitX=1;exitY=0.5;exitDx=0;exitDy=0;entryX=0;entryY=0.5;entryDx=0;entryDy=0;endArrow=none;endFill=0;" edge="1" parent="1" source="IQ7n-2P_HjUCSqsVsKf0-14" target="IQ7n-2P_HjUCSqsVsKf0-1">
          <mxGeometry relative="1" as="geometry" />
        </mxCell>
        <mxCell id="IQ7n-2P_HjUCSqsVsKf0-14" value="Dirección" style="ellipse;whiteSpace=wrap;html=1;" vertex="1" parent="1">
          <mxGeometry x="70" y="190" width="60" height="40" as="geometry" />
        </mxCell>
        <mxCell id="IQ7n-2P_HjUCSqsVsKf0-35" style="edgeStyle=orthogonalEdgeStyle;rounded=0;orthogonalLoop=1;jettySize=auto;html=1;exitX=1;exitY=0.5;exitDx=0;exitDy=0;entryX=0;entryY=0.5;entryDx=0;entryDy=0;endArrow=none;endFill=0;" edge="1" parent="1" source="IQ7n-2P_HjUCSqsVsKf0-15" target="IQ7n-2P_HjUCSqsVsKf0-1">
          <mxGeometry relative="1" as="geometry" />
        </mxCell>
        <mxCell id="IQ7n-2P_HjUCSqsVsKf0-15" value="Población" style="ellipse;whiteSpace=wrap;html=1;" vertex="1" parent="1">
          <mxGeometry x="70" y="270" width="60" height="40" as="geometry" />
        </mxCell>
        <mxCell id="IQ7n-2P_HjUCSqsVsKf0-34" style="edgeStyle=orthogonalEdgeStyle;rounded=0;orthogonalLoop=1;jettySize=auto;html=1;exitX=1;exitY=0.5;exitDx=0;exitDy=0;entryX=0;entryY=0.5;entryDx=0;entryDy=0;endArrow=none;endFill=0;" edge="1" parent="1" source="IQ7n-2P_HjUCSqsVsKf0-16" target="IQ7n-2P_HjUCSqsVsKf0-1">
          <mxGeometry relative="1" as="geometry" />
        </mxCell>
        <mxCell id="IQ7n-2P_HjUCSqsVsKf0-16" value="Salario" style="ellipse;whiteSpace=wrap;html=1;" vertex="1" parent="1">
          <mxGeometry x="70" y="230" width="60" height="40" as="geometry" />
        </mxCell>
        <mxCell id="IQ7n-2P_HjUCSqsVsKf0-17" value="" style="endArrow=none;html=1;rounded=0;entryX=0.5;entryY=1;entryDx=0;entryDy=0;" edge="1" parent="1" target="IQ7n-2P_HjUCSqsVsKf0-10">
          <mxGeometry width="50" height="50" relative="1" as="geometry">
            <mxPoint x="180" y="200" as="sourcePoint" />
            <mxPoint x="440" y="390" as="targetPoint" />
          </mxGeometry>
        </mxCell>
        <mxCell id="IQ7n-2P_HjUCSqsVsKf0-18" value="" style="endArrow=none;html=1;rounded=0;entryX=0.5;entryY=1;entryDx=0;entryDy=0;" edge="1" parent="1" target="IQ7n-2P_HjUCSqsVsKf0-12">
          <mxGeometry width="50" height="50" relative="1" as="geometry">
            <mxPoint x="232" y="200" as="sourcePoint" />
            <mxPoint x="440" y="390" as="targetPoint" />
          </mxGeometry>
        </mxCell>
        <mxCell id="IQ7n-2P_HjUCSqsVsKf0-19" value="" style="endArrow=none;html=1;rounded=0;entryX=0.5;entryY=1;entryDx=0;entryDy=0;" edge="1" parent="1">
          <mxGeometry width="50" height="50" relative="1" as="geometry">
            <mxPoint x="292" y="200" as="sourcePoint" />
            <mxPoint x="292" y="170" as="targetPoint" />
            <Array as="points">
              <mxPoint x="292" y="180" />
            </Array>
          </mxGeometry>
        </mxCell>
        <mxCell id="IQ7n-2P_HjUCSqsVsKf0-20" value="" style="endArrow=none;html=1;rounded=0;" edge="1" parent="1">
          <mxGeometry width="50" height="50" relative="1" as="geometry">
            <mxPoint x="180" y="200" as="sourcePoint" />
            <mxPoint x="290" y="200" as="targetPoint" />
          </mxGeometry>
        </mxCell>
        <mxCell id="IQ7n-2P_HjUCSqsVsKf0-22" value="" style="endArrow=none;html=1;rounded=0;exitX=0.5;exitY=0;exitDx=0;exitDy=0;" edge="1" parent="1" source="IQ7n-2P_HjUCSqsVsKf0-1">
          <mxGeometry width="50" height="50" relative="1" as="geometry">
            <mxPoint x="390" y="440" as="sourcePoint" />
            <mxPoint x="232" y="200" as="targetPoint" />
          </mxGeometry>
        </mxCell>
        <mxCell id="IQ7n-2P_HjUCSqsVsKf0-32" style="edgeStyle=orthogonalEdgeStyle;rounded=0;orthogonalLoop=1;jettySize=auto;html=1;exitX=0.5;exitY=1;exitDx=0;exitDy=0;entryX=0.5;entryY=0;entryDx=0;entryDy=0;endArrow=none;endFill=0;" edge="1" parent="1" source="IQ7n-2P_HjUCSqsVsKf0-23" target="IQ7n-2P_HjUCSqsVsKf0-2">
          <mxGeometry relative="1" as="geometry" />
        </mxCell>
        <mxCell id="IQ7n-2P_HjUCSqsVsKf0-23" value="Código paquete" style="ellipse;whiteSpace=wrap;html=1;aspect=fixed;fillColor=#f8cecc;strokeColor=#b85450;fontStyle=4" vertex="1" parent="1">
          <mxGeometry x="606" y="125" width="50" height="50" as="geometry" />
        </mxCell>
        <mxCell id="IQ7n-2P_HjUCSqsVsKf0-31" style="edgeStyle=orthogonalEdgeStyle;rounded=0;orthogonalLoop=1;jettySize=auto;html=1;exitX=0.5;exitY=1;exitDx=0;exitDy=0;entryX=0.5;entryY=0;entryDx=0;entryDy=0;endArrow=none;endFill=0;" edge="1" parent="1" source="IQ7n-2P_HjUCSqsVsKf0-24" target="IQ7n-2P_HjUCSqsVsKf0-2">
          <mxGeometry relative="1" as="geometry" />
        </mxCell>
        <mxCell id="IQ7n-2P_HjUCSqsVsKf0-24" value="Descripción" style="ellipse;whiteSpace=wrap;html=1;" vertex="1" parent="1">
          <mxGeometry x="530" y="125" width="76" height="50" as="geometry" />
        </mxCell>
        <mxCell id="IQ7n-2P_HjUCSqsVsKf0-25" value="&lt;div&gt;Dirección&lt;/div&gt;&lt;div&gt;destinatario&lt;br&gt;&lt;/div&gt;" style="ellipse;whiteSpace=wrap;html=1;" vertex="1" parent="1">
          <mxGeometry x="700" y="250" width="70" height="50" as="geometry" />
        </mxCell>
        <mxCell id="IQ7n-2P_HjUCSqsVsKf0-26" value="Destinatario" style="ellipse;whiteSpace=wrap;html=1;" vertex="1" parent="1">
          <mxGeometry x="700" y="200" width="70" height="50" as="geometry" />
        </mxCell>
        <mxCell id="IQ7n-2P_HjUCSqsVsKf0-27" value="" style="endArrow=none;html=1;rounded=0;entryX=0;entryY=0.5;entryDx=0;entryDy=0;" edge="1" parent="1" target="IQ7n-2P_HjUCSqsVsKf0-25">
          <mxGeometry width="50" height="50" relative="1" as="geometry">
            <mxPoint x="680" y="275" as="sourcePoint" />
            <mxPoint x="440" y="390" as="targetPoint" />
          </mxGeometry>
        </mxCell>
        <mxCell id="IQ7n-2P_HjUCSqsVsKf0-28" value="" style="endArrow=none;html=1;rounded=0;entryX=0;entryY=0.5;entryDx=0;entryDy=0;" edge="1" parent="1">
          <mxGeometry width="50" height="50" relative="1" as="geometry">
            <mxPoint x="680" y="224.5" as="sourcePoint" />
            <mxPoint x="700" y="224.5" as="targetPoint" />
          </mxGeometry>
        </mxCell>
        <mxCell id="IQ7n-2P_HjUCSqsVsKf0-29" value="" style="endArrow=none;html=1;rounded=0;entryX=1;entryY=0.5;entryDx=0;entryDy=0;" edge="1" parent="1" target="IQ7n-2P_HjUCSqsVsKf0-2">
          <mxGeometry width="50" height="50" relative="1" as="geometry">
            <mxPoint x="680" y="250" as="sourcePoint" />
            <mxPoint x="440" y="390" as="targetPoint" />
          </mxGeometry>
        </mxCell>
        <mxCell id="IQ7n-2P_HjUCSqsVsKf0-30" value="" style="endArrow=none;html=1;rounded=0;" edge="1" parent="1">
          <mxGeometry width="50" height="50" relative="1" as="geometry">
            <mxPoint x="680" y="225" as="sourcePoint" />
            <mxPoint x="680" y="275" as="targetPoint" />
          </mxGeometry>
        </mxCell>
      </root>
    </mxGraphModel>
  </diagram>
</mxfile>
